<svg xmlns="http://www.w3.org/2000/svg" xmlns:xlink="http://www.w3.org/1999/xlink" width="800.847" height="595.426" viewBox="0 0 800.847 595.426">
  <defs>
    <linearGradient id="linear-gradient" x1="0.5" x2="0.487" y2="1.099" gradientUnits="objectBoundingBox">
      <stop offset="0" stop-color="#007991"/>
      <stop offset="1" stop-color="#78ffd6"/>
    </linearGradient>
  </defs>
  <path id="Path_1" data-name="Path 1" d="M159.153,559.831s18.72-77.747,44.332-95.967c14.6-10.385,16.51,45.585,21.834,98.043,3.993,39.337,9.935,76.733,24.719,82C284.42,656.151,272.95,409.33,303.8,421.1s37.642,288.565,69.625,269.878,25.5-362.835,58.306-344.625,45.307,439.607,72.928,417.463-1.492-510.266,35.21-499.276,31.44,579.318,63.609,594.89S626.052,370.254,659.83,346.35s43.232,398.776,78.755,417.463S771.078,439.307,801.924,421.1s36.255,259.186,60.044,269.878,18.748-191.915,35.112-227.111S960,559.831,960,559.831" transform="translate(-159.153 -264.355)" fill="url(#linear-gradient)"/>
</svg>
